<svg width="54" height="20" viewBox="0 0 54 20" fill="none" xmlns="http://www.w3.org/2000/svg">
<g clip-path="url(#clip0)">
<path d="M27.8792 6.52599L30.4483 6.36284C30.5069 6.77552 30.6143 7.08262 30.7902 7.30335C31.0734 7.64885 31.4642 7.82159 31.9819 7.82159C32.3629 7.82159 32.6657 7.73522 32.8708 7.55288C33.0662 7.40892 33.1834 7.17859 33.1834 6.93867C33.1834 6.70834 33.076 6.4876 32.8904 6.34365C32.695 6.1709 32.2359 5.99816 31.513 5.8446C30.331 5.58548 29.4812 5.23999 28.983 4.79852C28.4848 4.38585 28.2015 3.78124 28.2211 3.13824C28.2211 2.69677 28.3578 2.25531 28.6118 1.89062C28.9049 1.47795 29.3054 1.15165 29.784 0.969304C30.3017 0.748572 31.0246 0.633408 31.9331 0.633408C33.0467 0.633408 33.8965 0.834945 34.4826 1.24762C35.0687 1.65069 35.4204 2.30329 35.5279 3.19582L32.9881 3.33977C32.9197 2.95589 32.7829 2.67758 32.5583 2.49523C32.3336 2.31289 32.0405 2.22652 31.6596 2.22652C31.347 2.22652 31.1125 2.2937 30.9562 2.41846C30.8097 2.53362 30.712 2.70637 30.7218 2.89831C30.7218 3.04227 30.7999 3.17662 30.9172 3.263C31.0441 3.37816 31.347 3.48373 31.8256 3.5797C33.0076 3.82922 33.8477 4.07875 34.3654 4.33787C34.8831 4.59699 35.2543 4.91369 35.479 5.28797C35.7135 5.67186 35.8307 6.11332 35.8209 6.56438C35.8209 7.10182 35.6646 7.63925 35.352 8.09031C35.0297 8.56057 34.5803 8.92525 34.0528 9.14599C33.496 9.38591 32.7927 9.51067 31.9526 9.51067C30.4678 9.51067 29.4421 9.23236 28.8658 8.66613C28.2894 8.09991 27.9475 7.38973 27.8792 6.52599ZM0.615413 9.36672V0.78696H5.11867C5.94899 0.78696 6.59371 0.85414 7.03329 0.998095C7.4631 1.13245 7.84407 1.41077 8.09805 1.78505C8.38133 2.19773 8.51809 2.67758 8.50832 3.17662C8.53763 4.02116 8.09805 4.82732 7.34588 5.24959C7.05282 5.41274 6.73046 5.5279 6.39834 5.58548C6.64255 5.65266 6.88676 5.76783 7.10166 5.90218C7.26773 6.03654 7.40449 6.1901 7.53148 6.35325C7.678 6.5164 7.80499 6.69874 7.91245 6.89068L9.22142 9.37631H6.15413L4.70839 6.73713C4.52279 6.40123 4.3665 6.1805 4.21997 6.07493C4.0246 5.94057 3.79016 5.87339 3.55572 5.87339H3.32127V9.35712H0.615413V9.36672ZM3.32127 4.26109H4.46418C4.70839 4.2419 4.94284 4.20351 5.17728 4.14593C5.35311 4.11713 5.50941 4.02116 5.61686 3.87721C5.88061 3.53172 5.84153 3.04227 5.51918 2.74476C5.34334 2.6008 5.00145 2.52403 4.51303 2.52403H3.32127V4.26109ZM0 16.7181L2.5691 16.5549C2.62771 16.9676 2.73517 17.2747 2.911 17.4954C3.18452 17.8409 3.58502 18.0233 4.10275 18.0233C4.48372 18.0233 4.78654 17.9369 4.99168 17.7545C5.18705 17.601 5.30427 17.3802 5.30427 17.1403C5.30427 16.91 5.19682 16.6893 5.01122 16.5453C4.81585 16.3726 4.35673 16.1998 3.6241 16.0463C2.44211 15.7871 1.59226 15.4416 1.09407 15.0002C0.595876 14.5875 0.31259 13.9829 0.332127 13.3399C0.332127 12.8984 0.468886 12.457 0.722866 12.0923C1.01592 11.6796 1.41643 11.3533 1.89508 11.171C2.41281 10.9502 3.13567 10.8351 4.04414 10.8351C5.15774 10.8351 6.0076 11.0366 6.59371 11.4493C7.17981 11.8619 7.52171 12.505 7.62916 13.3975L5.08936 13.5414C5.02098 13.1575 4.88423 12.8792 4.65955 12.6969C4.44465 12.5145 4.14182 12.4282 3.76085 12.4378C3.44826 12.4378 3.21382 12.505 3.05753 12.6393C2.90123 12.7545 2.81331 12.9272 2.82308 13.1192C2.82308 13.2631 2.90123 13.3975 3.01845 13.4838C3.14544 13.599 3.44826 13.7046 3.92692 13.8006C5.1089 14.0501 5.94899 14.2996 6.46672 14.5587C6.98444 14.8178 7.35564 15.1345 7.58032 15.5088C7.81476 15.8927 7.93198 16.3342 7.93198 16.7756C7.93198 17.3131 7.76592 17.8409 7.4631 18.292C7.14074 18.7622 6.69139 19.1269 6.16389 19.3476C5.60709 19.5876 4.90376 19.7123 4.06368 19.7123C2.57887 19.7123 1.55318 19.434 0.976845 18.8678C0.400507 18.292 0.0781476 17.5818 0 16.7181H0Z" fill="white"/>
<path d="M12.9921 16.0463L15.3561 16.7468C15.2291 17.3323 14.9654 17.8889 14.6039 18.3783C14.2718 18.8102 13.8322 19.1461 13.334 19.3668C12.8261 19.5876 12.1814 19.7027 11.3999 19.7027C10.4523 19.7027 9.67086 19.5684 9.07498 19.2997C8.46934 19.0309 7.95161 18.5511 7.51203 17.8697C7.07245 17.1883 6.85754 16.315 6.85754 15.2497C6.85754 13.8293 7.23851 12.7353 8.01022 11.9771C8.78193 11.2189 9.86623 10.8351 11.2729 10.8351C12.3767 10.8351 13.2363 11.0558 13.8713 11.4877C14.4965 11.9291 14.9654 12.6009 15.278 13.503L12.8945 14.0213C12.8358 13.8197 12.7479 13.6182 12.6307 13.4455C12.4842 13.2439 12.2986 13.0904 12.0739 12.9752C11.8492 12.86 11.5952 12.8121 11.3413 12.8121C10.7259 12.8121 10.257 13.052 9.93461 13.5414C9.6904 13.8965 9.56341 14.4627 9.56341 15.2305C9.56341 16.1806 9.70993 16.8332 10.003 17.1883C10.296 17.5434 10.7063 17.7161 11.2436 17.7161C11.7613 17.7161 12.152 17.5722 12.4158 17.2939C12.6795 16.9964 12.8749 16.5837 12.9921 16.0463ZM18.5113 10.979H21.2074V13.9829H24.1575V10.979H26.8731V19.5588H24.1575V16.0846H21.2074V19.5588H18.5113V10.979Z" fill="white"/>
<path d="M26.5017 15.2689C26.5017 13.8677 26.9022 12.7737 27.6935 11.9963C28.4847 11.2189 29.5983 10.8255 31.0147 10.8255C32.4702 10.8255 33.5838 11.2093 34.3751 11.9771C35.1663 12.7449 35.5571 13.8197 35.5571 15.2017C35.5571 16.2094 35.3812 17.0251 35.0393 17.6681C34.7072 18.3015 34.1895 18.8198 33.5545 19.1653C32.9 19.5204 32.0893 19.7027 31.1222 19.7027C30.1356 19.7027 29.3248 19.5492 28.6801 19.2421C28.0158 18.9158 27.4688 18.4071 27.1074 17.7833C26.7068 17.1115 26.5017 16.2766 26.5017 15.2689ZM29.1978 15.2785C29.1978 16.1422 29.3639 16.766 29.6862 17.1499C30.0086 17.5242 30.4579 17.7161 31.0245 17.7161C31.6008 17.7161 32.0502 17.5338 32.3726 17.1595C32.6949 16.7852 32.8512 16.123 32.8512 15.1633C32.8512 14.3572 32.6851 13.7621 32.353 13.3975C32.0209 13.0232 31.5715 12.8408 31.005 12.8408C30.5068 12.8216 30.0281 13.0328 29.696 13.4071C29.3639 13.7813 29.1978 14.4051 29.1978 15.2785ZM38.3215 15.2689C38.3215 13.8677 38.722 12.7737 39.5133 11.9963C40.3045 11.2189 41.4181 10.8255 42.8346 10.8255C44.2901 10.8255 45.4134 11.2093 46.1949 11.9771C46.9764 12.7449 47.3769 13.8197 47.3769 15.2017C47.3769 16.2094 47.2011 17.0251 46.8592 17.6681C46.527 18.3015 46.0093 18.8198 45.3744 19.1653C44.7199 19.5204 43.9091 19.7027 42.942 19.7027C41.9554 19.7027 41.1446 19.5492 40.4999 19.2421C39.8357 18.9158 39.2886 18.4071 38.9272 17.7833C38.5267 17.1115 38.3215 16.2766 38.3215 15.2689ZM41.0176 15.2785C41.0176 16.1422 41.1837 16.766 41.5061 17.1499C41.8284 17.5242 42.2778 17.7161 42.8443 17.7161C43.4207 17.7161 43.87 17.5338 44.1924 17.1595C44.5147 16.7852 44.671 16.123 44.671 15.1633C44.671 14.3572 44.505 13.7621 44.1728 13.3975C43.8407 13.0232 43.3914 12.8408 42.8248 12.8408C42.3266 12.8216 41.8382 13.0328 41.5158 13.4071C41.1837 13.7813 41.0176 14.4051 41.0176 15.2785Z" fill="white"/>
<path d="M47.0938 10.979H49.7898V17.4474H54V19.5588H47.084V10.979H47.0938Z" fill="white"/>
<path d="M44.122 10.4839C46.8364 8.47424 47.6734 5.06762 45.9915 2.87495C44.3097 0.682282 40.7458 0.533892 38.0314 2.54351C35.317 4.55313 34.48 7.95976 36.1619 10.1524C37.8437 12.3451 41.4076 12.4935 44.122 10.4839Z" fill="white"/>
</g>
<defs>
<clipPath id="clip0">
<rect width="54" height="19.7027" fill="white"/>
</clipPath>
</defs>
</svg>
